<?xml version="1.0" standalone="no"?>
<!DOCTYPE svg PUBLIC "-//W3C//DTD SVG 20010904//EN"
 "http://www.w3.org/TR/2001/REC-SVG-20010904/DTD/svg10.dtd">
<svg version="1.0" xmlns="http://www.w3.org/2000/svg"
 width="200.000000pt" height="200.000000pt" viewBox="0 0 200.000000 200.000000"
 preserveAspectRatio="xMidYMid meet">

<g transform="translate(0.000000,200.000000) scale(0.100000,-0.100000)"
fill="#000000" stroke="none">
<path d="M721 1856 l-81 -94 0 -201 0 -201 -158 0 c-121 0 -163 -3 -178 -14
-18 -14 -19 -33 -22 -582 l-2 -568 72 -73 72 -73 577 0 576 0 72 74 71 74 -2
567 c-3 548 -4 567 -22 581 -15 11 -57 14 -178 14 l-158 0 0 200 0 201 -81 94
-81 95 -198 0 -198 0 -81 -94z m449 -6 l0 -50 -170 0 -170 0 0 50 0 50 170 0
170 0 0 -50z m-402 -617 c-26 -28 -36 -28 -65 -4 -23 19 -23 22 -23 266 l0
247 53 60 52 60 3 -303 c2 -299 2 -303 -20 -326z m552 268 c0 -238 -1 -245
-22 -268 -27 -29 -36 -29 -65 -1 l-23 21 0 306 0 306 55 -60 54 -60 1 -244z
m-150 54 l0 -195 -170 0 -170 0 0 195 0 195 170 0 170 0 0 -195z m-530 -289
c0 -39 4 -47 44 -80 24 -20 47 -36 51 -36 3 0 26 17 51 37 39 33 44 42 44 80
l0 43 170 0 170 0 0 -43 c0 -38 5 -47 44 -80 25 -20 48 -37 51 -37 4 0 27 16
51 36 40 33 44 41 44 80 l0 44 155 0 155 0 0 -552 0 -552 -52 -53 -52 -53
-565 0 -565 0 -53 52 -53 52 0 553 0 553 155 0 155 0 0 -44z"/>
<path d="M713 1314 c-8 -22 18 -37 36 -20 7 8 10 19 7 25 -10 16 -36 13 -43
-5z"/>
<path d="M1244 1319 c-3 -6 0 -17 7 -25 18 -17 44 -2 36 20 -7 18 -33 21 -43
5z"/>
</g>
</svg>
