<svg version="1.0" xmlns="http://www.w3.org/2000/svg"
 viewBox="0 0 840.000000 529.000000"
 preserveAspectRatio="xMidYMid meet">
<g transform="translate(0.000000,529.000000) scale(0.100000,-0.100000)"
fill="#000000" stroke="none">
<path d="M3967 4864 c-107 -16 -269 -69 -374 -122 -318 -161 -564 -479 -644
-829 -11 -49 -22 -139 -26 -200 l-6 -113 -318 0 -318 0 -5 -42 c-4 -24 -74
-722 -156 -1553 -83 -830 -153 -1531 -157 -1557 l-6 -48 2242 0 c1232 0 2241
1 2241 3 0 11 -311 3113 -316 3150 l-6 47 -319 0 -319 0 0 68 c0 94 -24 242
-55 342 -63 199 -159 356 -309 506 -191 191 -406 302 -675 348 -115 20 -349
20 -474 0z m508 -333 c385 -103 657 -435 682 -833 l6 -98 -963 0 -963 0 6 95
c15 224 103 425 254 579 143 147 333 245 528 276 104 16 359 5 450 -19z
m-1555 -1433 l0 -183 -36 -24 c-19 -14 -48 -43 -64 -66 -114 -165 -55 -387
125 -475 72 -35 198 -35 270 0 181 89 239 310 123 477 -16 24 -45 54 -64 66
l-34 22 0 183 0 182 960 0 960 0 0 -182 0 -183 -34 -22 c-19 -12 -48 -42 -64
-66 -116 -167 -58 -388 123 -477 72 -35 198 -35 270 0 181 89 239 310 123 477
-16 24 -45 54 -64 66 l-34 22 0 183 0 182 175 0 c173 0 175 0 179 -22 3 -13
23 -212 46 -443 45 -476 66 -694 145 -1499 30 -313 55 -575 55 -582 0 -12
-297 -14 -1880 -14 -1034 0 -1880 3 -1880 8 0 4 7 77 15 162 8 85 24 245 35
355 28 296 107 1110 130 1345 32 323 50 510 56 580 10 122 -11 110 189 110
l175 0 0 -182z"/>
</g>
</svg>