<?xml version="1.0" standalone="no"?>
<!DOCTYPE svg PUBLIC "-//W3C//DTD SVG 20010904//EN"
 "http://www.w3.org/TR/2001/REC-SVG-20010904/DTD/svg10.dtd">
<svg version="1.0" xmlns="http://www.w3.org/2000/svg"
 width="512.000000pt" height="512.000000pt" viewBox="0 0 512.000000 512.000000"
 preserveAspectRatio="xMidYMid meet">

<g transform="translate(0.000000,512.000000) scale(0.100000,-0.100000)"
fill="#000000" stroke="none">
<path d="M1140 4620 c-374 -70 -701 -295 -908 -625 -66 -106 -135 -280 -167
-422 -26 -112 -31 -371 -10 -494 34 -204 116 -405 234 -569 45 -63 335 -359
1143 -1167 l1083 -1083 45 0 45 0 1073 1072 c683 683 1097 1104 1138 1158 79
104 175 294 209 415 44 155 58 272 52 440 -6 156 -22 249 -63 374 -117 350
-381 645 -715 800 -179 83 -358 121 -564 121 -219 0 -416 -45 -600 -137 -167
-84 -250 -148 -468 -362 l-107 -106 -113 111 c-152 150 -218 207 -301 264
-155 104 -355 184 -535 214 -127 21 -347 20 -471 -4z m521 -223 c251 -66 352
-130 631 -404 145 -143 224 -214 240 -215 62 -4 73 4 263 190 207 203 286 267
403 330 430 227 955 158 1309 -172 351 -327 460 -846 269 -1286 -85 -196 -76
-187 -1190 -1300 l-1026 -1025 -1021 1020 c-561 561 -1042 1049 -1068 1085
-324 437 -288 1054 85 1450 168 177 391 299 631 345 121 23 351 14 474 -18z"/>
</g>
</svg>
