<?xml version="1.0" standalone="no"?>
<!DOCTYPE svg PUBLIC "-//W3C//DTD SVG 20010904//EN"
 "http://www.w3.org/TR/2001/REC-SVG-20010904/DTD/svg10.dtd">
<svg version="1.0" xmlns="http://www.w3.org/2000/svg"
 width="216.000000pt" height="234.000000pt" viewBox="0 0 216.000000 234.000000"
 preserveAspectRatio="xMidYMid meet">

<g transform="translate(0.000000,234.000000) scale(0.100000,-0.100000)"
fill="#000000" stroke="none">
<path d="M1220 2042 c-19 -9 -41 -28 -48 -42 -15 -29 -9 -88 14 -133 19 -36
14 -105 -10 -152 -9 -16 -16 -36 -16 -44 0 -8 -4 -28 -10 -45 -5 -17 -14 -52
-21 -78 -6 -26 -22 -62 -36 -80 -21 -30 -24 -31 -29 -13 -8 27 -69 65 -105 65
-66 0 -104 -87 -59 -135 25 -27 18 -48 -24 -73 -19 -11 -49 -48 -75 -93 -24
-41 -59 -94 -76 -119 -18 -25 -44 -67 -58 -95 -31 -62 -51 -81 -113 -105 l-49
-19 40 -1 c29 0 36 -3 25 -10 -23 -14 -6 -22 25 -10 23 9 26 8 21 -5 -8 -21 8
-19 29 5 13 14 22 17 29 10 5 -5 19 -10 30 -10 20 1 20 1 2 15 -15 11 -17 21
-11 51 5 29 23 54 70 100 35 34 66 70 69 80 4 11 17 27 30 36 23 17 25 17 38
-5 8 -12 23 -44 33 -70 l18 -48 -31 -29 c-24 -22 -32 -37 -32 -64 0 -28 -5
-38 -27 -50 -31 -17 -106 -86 -138 -127 -11 -14 -32 -32 -47 -40 -154 -83
-180 -100 -248 -168 -41 -41 -79 -73 -84 -72 -5 1 -13 -4 -18 -11 -6 -10 -12
-9 -24 7 -16 20 -16 20 -9 -2 9 -33 -21 -60 -88 -77 -67 -17 -77 -23 -77 -40
0 -19 45 -57 66 -56 84 2 109 13 171 71 34 33 66 60 72 60 6 1 15 2 21 3 5 0
31 17 58 37 26 20 64 44 83 54 18 10 59 35 89 55 30 20 118 70 195 109 l140
72 65 -21 c36 -12 97 -34 135 -50 39 -15 94 -34 123 -40 30 -7 77 -28 105 -48
165 -113 225 -152 234 -152 15 0 109 -103 118 -129 8 -26 5 -26 69 19 77 55
149 114 153 126 6 20 -27 25 -57 9 -29 -15 -120 -21 -120 -8 0 4 10 18 23 32
l22 24 -36 -21 c-30 -18 -42 -20 -63 -12 -14 5 -26 16 -26 24 0 7 -8 20 -19
27 -10 8 -50 39 -87 70 -80 65 -189 139 -203 139 -5 0 -31 18 -57 41 -26 22
-71 53 -101 67 -39 19 -53 32 -53 47 0 11 -14 32 -30 47 -28 25 -30 30 -23 70
15 80 8 172 -16 228 -24 55 -24 92 -3 175 6 22 18 76 27 120 10 44 22 85 27
91 7 10 19 117 22 202 1 12 5 22 9 22 5 0 24 7 42 15 60 29 74 105 28 154 -36
38 -70 45 -113 23z"/>
</g>
</svg>
